<svg width="258" height="75" viewBox="0 0 258 75" fill="none" xmlns="http://www.w3.org/2000/svg">
<path d="M87.9791 46.6667L51.5 37.9167L15.0208 46.6667V64.1667H87.9791V46.6667Z" fill="#E89419"/>
<path d="M53.6459 4.375H49.3542V18.9583H53.6459V4.375Z" fill="#FFC107"/>
<path d="M57.9375 7.29166H45.0625V10.2083H57.9375V7.29166Z" fill="#FFC107"/>
<path d="M36.4792 53.9598C36.4792 50.069 27.8958 46.6681 27.8958 46.6681C27.8958 46.6681 19.3125 50.069 19.3125 53.9598C19.3125 57.8477 19.3125 64.1667 19.3125 64.1667H36.4792C36.4792 64.1667 36.4792 57.8477 36.4792 53.9598Z" fill="#FFB74D"/>
<path d="M83.6875 53.9598C83.6875 50.069 75.1041 46.6681 75.1041 46.6681C75.1041 46.6681 66.5208 50.069 66.5208 53.9598C66.5208 57.8477 66.5208 64.1667 66.5208 64.1667H83.6875C83.6875 64.1667 83.6875 57.8477 83.6875 53.9598Z" fill="#FFB74D"/>
<path d="M62.2291 64.1667H40.7708V35L51.5 27.7083L62.2291 35V64.1667Z" fill="#FFB74D"/>
<path d="M49.3541 16.0417H53.6458L62.2291 35L51.5 27.7084L40.7708 35L49.3541 16.0417Z" fill="#E64A19"/>
<path d="M40.7708 37.73L12.0981 45.3075L13.6517 48.0258L40.7708 40.8596V37.73Z" fill="#BF360C"/>
<path d="M62.2291 37.73V40.8596L89.3481 48.0258L90.9017 45.3075L62.2291 37.73Z" fill="#BF360C"/>
<path d="M38.6249 35L51.4999 26.25L64.375 35" stroke="#BF360C" stroke-width="2"/>
<path d="M27.8958 52.5C29.0809 52.5 30.0417 51.8471 30.0417 51.0417C30.0417 50.2362 29.0809 49.5833 27.8958 49.5833C26.7107 49.5833 25.75 50.2362 25.75 51.0417C25.75 51.8471 26.7107 52.5 27.8958 52.5Z" fill="#805A26"/>
<path d="M25.75 56.875C25.75 55.4166 23.6041 53.9583 23.6041 53.9583C23.6041 53.9583 21.4583 55.4166 21.4583 56.875C21.4583 58.3333 21.4583 64.1667 21.4583 64.1667H25.75C25.75 64.1667 25.75 58.3333 25.75 56.875Z" fill="#805A26"/>
<path d="M34.3333 56.875C34.3333 55.4166 32.1875 53.9583 32.1875 53.9583C32.1875 53.9583 30.0416 55.4166 30.0416 56.875C30.0416 58.3333 30.0416 64.1667 30.0416 64.1667H34.3333C34.3333 64.1667 34.3333 58.3333 34.3333 56.875Z" fill="#805A26"/>
<path d="M75.1041 52.5C76.2893 52.5 77.25 51.8471 77.25 51.0417C77.25 50.2362 76.2893 49.5833 75.1041 49.5833C73.919 49.5833 72.9583 50.2362 72.9583 51.0417C72.9583 51.8471 73.919 52.5 75.1041 52.5Z" fill="#805A26"/>
<path d="M72.9583 56.875C72.9583 55.4166 70.8125 53.9583 70.8125 53.9583C70.8125 53.9583 68.6667 55.4166 68.6667 56.875C68.6667 58.3333 68.6667 64.1667 68.6667 64.1667H72.9583C72.9583 64.1667 72.9583 58.3333 72.9583 56.875Z" fill="#805A26"/>
<path d="M81.5417 56.875C81.5417 55.4166 79.3958 53.9583 79.3958 53.9583C79.3958 53.9583 77.25 55.4166 77.25 56.875C77.25 58.3333 77.25 64.1667 77.25 64.1667H81.5417C81.5417 64.1667 81.5417 58.3333 81.5417 56.875Z" fill="#805A26"/>
<path d="M51.5 39.375C53.8702 39.375 55.7916 38.0692 55.7916 36.4584C55.7916 34.8475 53.8702 33.5417 51.5 33.5417C49.1298 33.5417 47.2083 34.8475 47.2083 36.4584C47.2083 38.0692 49.1298 39.375 51.5 39.375Z" fill="#805A26"/>
<path d="M57.9375 56.8751C57.9375 53.9584 51.5 51.0417 51.5 51.0417C51.5 51.0417 45.0625 53.9584 45.0625 56.8751C45.0625 59.7917 45.0625 64.1667 45.0625 64.1667H57.9375C57.9375 64.1667 57.9375 59.7917 57.9375 56.8751Z" fill="#805A26"/>
<path d="M98.65 63.7C99.17 63.7 99.61 63.52 99.97 63.16C100.35 62.78 100.55 62.33 100.57 61.81V45.1C100.51 44.4 100.18 43.88 99.58 43.54C99.28 43.38 98.97 43.3 98.65 43.3H98.26V43H106.69C107.57 43 108.34 42.93 109 42.79C109.66 42.65 110.09 42.54 110.29 42.46V47.71H109.96V47.35C109.98 46.45 109.72 45.73 109.18 45.19C108.66 44.63 107.95 44.33 107.05 44.29H105.07V53.02H109.84C110.58 53 111.19 52.75 111.67 52.27C112.15 51.77 112.39 51.16 112.39 50.44V50.17H112.66V57.1H112.39V56.86C112.39 56.12 112.15 55.51 111.67 55.03C111.19 54.55 110.59 54.3 109.87 54.28H105.07V62.71H110.92C112.38 62.71 113.6 62.29 114.58 61.45C115.58 60.61 116.32 59.42 116.8 57.88H117.1L115.69 64H98.26V63.7H98.65ZM118.63 63.7C119.15 63.7 119.59 63.52 119.95 63.16C120.33 62.78 120.53 62.33 120.55 61.81V45.16C120.53 44.44 120.2 43.9 119.56 43.54C119.28 43.38 118.97 43.3 118.63 43.3H118.24V43H127.36L127.33 43.3H126.97C126.45 43.3 126 43.48 125.62 43.84C125.24 44.2 125.05 44.64 125.05 45.16V61.81C125.05 62.33 125.24 62.78 125.62 63.16C126 63.52 126.45 63.7 126.97 63.7H127.33L127.36 64H118.24V63.7H118.63ZM148.42 69.1C146.96 69.86 145.63 70.24 144.43 70.24C143.23 70.24 142.15 70.07 141.19 69.73C138.81 68.87 136.38 66.9 133.9 63.82L126.01 54.1L133.12 44.68C133.28 44.48 133.36 44.3 133.36 44.14C133.36 43.98 133.33 43.84 133.27 43.72C133.11 43.42 132.83 43.27 132.43 43.27H132.13V43H139V43.27H138.88C137.54 43.27 136.45 43.75 135.61 44.71L129.76 51.67L137.92 61.81C139.74 64.21 141.45 65.95 143.05 67.03C144.65 68.11 146.43 68.7 148.39 68.8L148.42 69.1ZM141.453 63.7C141.973 63.7 142.413 63.52 142.773 63.16C143.153 62.78 143.353 62.33 143.373 61.81V45.16C143.353 44.44 143.023 43.9 142.383 43.54C142.103 43.38 141.793 43.3 141.453 43.3H141.063V43H150.183L150.153 43.3H149.793C149.273 43.3 148.823 43.48 148.443 43.84C148.063 44.2 147.873 44.64 147.873 45.16V61.81C147.873 62.33 148.063 62.78 148.443 63.16C148.823 63.52 149.273 63.7 149.793 63.7H150.153L150.183 64H141.063V63.7H141.453ZM171.243 69.1C169.783 69.86 168.453 70.24 167.253 70.24C166.053 70.24 164.973 70.07 164.013 69.73C161.633 68.87 159.203 66.9 156.723 63.82L148.833 54.1L155.943 44.68C156.103 44.48 156.183 44.3 156.183 44.14C156.183 43.98 156.153 43.84 156.093 43.72C155.933 43.42 155.653 43.27 155.253 43.27H154.953V43H161.823V43.27H161.703C160.363 43.27 159.273 43.75 158.433 44.71L152.583 51.67L160.743 61.81C162.563 64.21 164.273 65.95 165.873 67.03C167.473 68.11 169.253 68.7 171.213 68.8L171.243 69.1ZM188.245 68.17C190.325 68.17 192.005 67.76 193.285 66.94L193.495 67.18C191.775 69.56 189.635 70.88 187.075 71.14C186.535 71.2 186.065 71.23 185.665 71.23C185.285 71.23 184.835 71.21 184.315 71.17C183.815 71.15 183.105 71.02 182.185 70.78C181.265 70.54 180.455 70.29 179.755 70.03C179.055 69.79 178.245 69.46 177.325 69.04C176.405 68.64 175.645 68.28 175.045 67.96C174.445 67.66 173.725 67.29 172.885 66.85C172.065 66.43 171.345 66.07 170.725 65.77C170.105 65.47 169.505 65.21 168.925 64.99C167.285 64.33 165.605 64 163.885 64V63.7H164.275C164.795 63.7 165.235 63.52 165.595 63.16C165.975 62.8 166.175 62.35 166.195 61.81V45.19C166.175 44.65 165.975 44.2 165.595 43.84C165.235 43.48 164.795 43.3 164.275 43.3H163.885V43H173.005L172.975 43.3H172.675C171.915 43.3 171.345 43.61 170.965 44.23C170.785 44.51 170.695 44.83 170.695 45.19V62.59C170.695 63.25 170.825 63.71 171.085 63.97C171.345 64.21 171.635 64.38 171.955 64.48C179.475 66.94 184.905 68.17 188.245 68.17ZM177.078 63.7C177.598 63.7 178.038 63.52 178.398 63.16C178.778 62.78 178.978 62.33 178.998 61.81V45.1C178.938 44.4 178.608 43.88 178.008 43.54C177.708 43.38 177.398 43.3 177.078 43.3H176.688V43H185.118C185.998 43 186.768 42.93 187.428 42.79C188.088 42.65 188.518 42.54 188.718 42.46V47.71H188.388V47.35C188.408 46.45 188.148 45.73 187.608 45.19C187.088 44.63 186.378 44.33 185.478 44.29H183.498V53.02H188.268C189.008 53 189.618 52.75 190.098 52.27C190.578 51.77 190.818 51.16 190.818 50.44V50.17H191.088V57.1H190.818V56.86C190.818 56.12 190.578 55.51 190.098 55.03C189.618 54.55 189.018 54.3 188.298 54.28H183.498V62.71H189.348C190.808 62.71 192.028 62.29 193.008 61.45C194.008 60.61 194.748 59.42 195.228 57.88H195.528L194.118 64H176.688V63.7H177.078ZM198.345 55.48C197.545 56.76 197.145 58.07 197.145 59.41C197.145 60.87 197.675 62.2 198.735 63.4C199.315 64.08 200.045 64.61 200.925 64.99C201.825 65.37 202.805 65.56 203.865 65.56C204.925 65.56 205.875 65.36 206.715 64.96C208.395 64.14 209.235 62.8 209.235 60.94C209.235 60.24 208.995 59.5 208.515 58.72C208.055 57.94 207.355 57.24 206.415 56.62L201.315 53.2C199.335 51.96 198.345 50.36 198.345 48.4C198.345 48.2 198.355 48 198.375 47.8C198.495 46.26 199.105 45.01 200.205 44.05C201.325 43.07 202.815 42.58 204.675 42.58C205.815 42.58 207.195 42.68 208.815 42.88H210.675L210.285 47.29H210.015C209.995 46.25 209.595 45.42 208.815 44.8C208.035 44.16 207.005 43.84 205.725 43.84C204.165 43.84 203.035 44.31 202.335 45.25C201.995 45.73 201.825 46.25 201.825 46.81C201.825 47.37 201.995 47.85 202.335 48.25C202.675 48.63 203.215 49.05 203.955 49.51L209.565 53.17C210.705 53.91 211.595 54.78 212.235 55.78C212.995 56.96 213.375 58.17 213.375 59.41C213.375 60.21 213.205 61.06 212.865 61.96C212.545 62.84 212.005 63.66 211.245 64.42C210.505 65.18 209.545 65.8 208.365 66.28C207.185 66.76 205.875 67 204.435 67C203.015 67 201.725 66.75 200.565 66.25C198.425 65.35 197.065 63.78 196.485 61.54C196.365 61.06 196.305 60.56 196.305 60.04C196.305 58.36 196.895 56.77 198.075 55.27L198.345 55.48ZM226.571 63.7H226.961V64H217.841V63.7H218.231C218.751 63.7 219.191 63.52 219.551 63.16C219.931 62.78 220.131 62.33 220.151 61.81V44.23L217.301 44.35C215.421 44.43 214.481 45.13 214.481 46.45C214.481 46.99 214.661 47.45 215.021 47.83C215.401 48.19 215.921 48.37 216.581 48.37C216.641 48.37 216.701 48.37 216.761 48.37V48.55C216.361 48.69 216.021 48.76 215.741 48.76C214.841 48.76 214.151 48.44 213.671 47.8C213.331 47.36 213.161 46.86 213.161 46.3C213.161 45.42 213.511 44.7 214.211 44.14C214.891 43.56 215.951 43.22 217.391 43.12C217.651 43.1 218.491 43.06 219.911 43C223.151 42.88 225.501 42.68 226.961 42.4L227.021 42.7C226.161 42.84 225.551 43.13 225.191 43.57C224.851 44.01 224.671 44.66 224.651 45.52V61.81C224.671 62.33 224.861 62.78 225.221 63.16C225.601 63.52 226.051 63.7 226.571 63.7ZM257.113 69.49C254.933 70.59 252.723 70.77 250.483 70.03C248.103 69.27 246.053 67.65 244.333 65.17C243.413 63.85 242.623 62.32 241.963 60.58L241.003 58.03H233.923L232.333 61.81C232.233 62.07 232.183 62.28 232.183 62.44C232.183 62.6 232.213 62.78 232.273 62.98C232.353 63.16 232.503 63.33 232.723 63.49C232.963 63.63 233.223 63.7 233.503 63.7H233.743V64H227.323V63.7H227.593C228.053 63.7 228.503 63.57 228.943 63.31C229.403 63.03 229.783 62.62 230.083 62.08L236.773 46.81C235.993 45.05 235.163 43.84 234.283 43.18C233.543 42.62 232.833 42.34 232.153 42.34C231.493 42.34 230.873 42.44 230.293 42.64L230.233 42.34C231.673 41.6 233.053 41.23 234.373 41.23C236.013 41.23 237.483 41.87 238.783 43.15C240.063 44.41 241.193 46.23 242.173 48.61L246.523 59.35C248.163 63.41 249.843 66.2 251.563 67.72C252.263 68.34 252.983 68.77 253.723 69.01C254.463 69.25 255.083 69.37 255.583 69.37C256.103 69.37 256.603 69.31 257.083 69.19L257.113 69.49ZM234.433 56.74H240.553L238.453 51.19C238.353 50.91 238.213 50.53 238.033 50.05C237.853 49.55 237.733 49.2 237.673 49L234.433 56.74Z" fill="#BF360C"/>
</svg>
